# xmcd
#
# Track frame offsets: 
#        150
#        15907
#        35514
#        55017
#        68177
#        82111
#        114826
#        132974
#        146631
#        166900
#        180755
#        202078
#        217195
#        240220
#
# Disc length: 3723 seconds
#
# Revision: 6
# Processed by: cddbd v1.5.1PL2 Copyright (c) Steve Scherf et al.
# Submitted via: ExactAudioCopy v0.95a5
#
DISCID=b70e890e
DTITLE=Emmylou Harris - Spyboy
DYEAR=1998
DGENRE=Country
TTITLE0=My Songbird
TTITLE1=Where Will I Be
TTITLE2=I Ain't Living Long Like This
TTITLE3=Love Hurts
TTITLE4=Green Pastures
TTITLE5=Deeper Well
TTITLE6=Prayer in Open D
TTITLE7=Calling My Children Home
TTITLE8=Tulsa Queen
TTITLE9=Wheels
TTITLE10=Born to Run
TTITLE11=Boulder to Birmingham
TTITLE12=All My Tears
TTITLE13=The Maker
EXTD=
EXTT0=
EXTT1=
EXTT2=
EXTT3=
EXTT4=
EXTT5=
EXTT6=
EXTT7=
EXTT8=
EXTT9=
EXTT10=
EXTT11=
EXTT12=
EXTT13=
PLAYORDER=
